<?xml version="1.0" encoding="UTF-8"?>
<svg id="Layer_1" xmlns="http://www.w3.org/2000/svg" viewBox="0 0 426.99 128.87">
  <g>
    <path d="M7.3,79.57V16.59h24.97c4.26,0,7.75.85,10.47,2.56,2.73,1.71,4.75,3.89,6.08,6.54,1.33,2.65,1.99,5.39,1.99,8.22,0,3.47-.82,6.41-2.47,8.83-1.65,2.42-3.88,4.05-6.71,4.9v-2.19c3.96.9,6.98,2.78,9.03,5.64,2.05,2.86,3.08,6.11,3.08,9.75s-.71,7-2.14,9.8c-1.43,2.8-3.55,4.99-6.36,6.56-2.81,1.57-6.29,2.36-10.43,2.36H7.3ZM17.97,41.74h14.17c1.52,0,2.87-.29,4.07-.87,1.2-.58,2.14-1.44,2.84-2.58.7-1.14,1.05-2.54,1.05-4.2,0-2.19-.7-4.01-2.1-5.47-1.4-1.46-3.35-2.19-5.86-2.19h-14.17v15.31ZM17.97,69.64h15.52c1.84,0,3.48-.37,4.94-1.12,1.46-.74,2.6-1.79,3.43-3.15.83-1.36,1.25-2.97,1.25-4.83,0-1.69-.37-3.21-1.09-4.55-.73-1.34-1.79-2.41-3.19-3.21-1.4-.8-3.08-1.2-5.03-1.2h-15.83v18.06Z"/>
    <path d="M70.58,80.92c-3.5,0-6.38-.58-8.66-1.75-2.27-1.17-4.08-2.65-5.42-4.46-1.34-1.81-2.33-3.73-2.97-5.77-.64-2.04-1.06-3.97-1.25-5.79-.19-1.82-.28-3.3-.28-4.44v-26.37h10.67v22.74c0,1.46.1,3.1.31,4.92.2,1.82.68,3.57,1.42,5.25.74,1.68,1.85,3.05,3.32,4.13,1.47,1.08,3.46,1.62,5.97,1.62,1.34,0,2.67-.22,3.98-.66s2.5-1.19,3.56-2.25c1.06-1.06,1.92-2.53,2.56-4.39.64-1.87.96-4.23.96-7.08l6.25,2.67c0,4.02-.78,7.67-2.34,10.93-1.56,3.27-3.86,5.87-6.89,7.81s-6.76,2.91-11.19,2.91ZM86.01,79.57v-14.65h-1.27v-32.58h10.58v47.23h-9.31Z"/>
    <path d="M98.82,25.16v-9.66h10.54v9.66h-10.54ZM98.82,79.57v-47.23h10.54v47.23h-10.54Z"/>
    <path d="M113.74,79.57V15.28h10.54v64.28h-10.54Z"/>
    <path d="M146.71,80.88c-4.34,0-8.13-1.09-11.37-3.28-3.24-2.19-5.74-5.16-7.52-8.92-1.78-3.76-2.67-8-2.67-12.73s.9-9.04,2.69-12.79c1.79-3.75,4.34-6.71,7.63-8.88,3.29-2.17,7.17-3.26,11.63-3.26s8.26,1.09,11.3,3.26c3.05,2.17,5.36,5.14,6.93,8.9,1.57,3.76,2.36,8.02,2.36,12.77s-.79,8.93-2.36,12.7c-1.57,3.78-3.92,6.76-7.04,8.94-3.12,2.19-6.98,3.28-11.59,3.28ZM148.33,71.43c2.83,0,5.11-.65,6.84-1.95,1.73-1.3,3-3.11,3.8-5.44.8-2.33,1.2-5.03,1.2-8.09s-.4-5.79-1.2-8.11c-.8-2.32-2.05-4.12-3.74-5.42-1.69-1.3-3.88-1.95-6.56-1.95-2.83,0-5.16.69-7,2.08-1.84,1.39-3.19,3.25-4.07,5.6-.87,2.35-1.31,4.95-1.31,7.81s.43,5.5,1.29,7.85c.86,2.35,2.18,4.21,3.96,5.58,1.78,1.37,4.04,2.06,6.78,2.06ZM160.18,79.57v-33.15h-1.31v-29.82h10.63v62.97h-9.31Z"/>
  </g>
  <g>
    <path d="M202.49,80.88c-6.27,0-11.56-1.39-15.87-4.18-4.31-2.78-7.58-6.64-9.8-11.57-2.22-4.93-3.32-10.61-3.32-17.05s1.11-12.13,3.32-17.05c2.22-4.93,5.48-8.78,9.8-11.57,4.31-2.78,9.61-4.18,15.87-4.18,7.32,0,13.29,1.87,17.93,5.62,4.64,3.75,7.81,8.77,9.53,15.07l-6.56,1.71c-1.34-4.99-3.75-8.94-7.22-11.85-3.47-2.91-8.03-4.37-13.69-4.37-4.93,0-9.02,1.12-12.29,3.37-3.27,2.25-5.72,5.37-7.37,9.38-1.65,4.01-2.5,8.64-2.56,13.88-.03,5.25.78,9.87,2.43,13.86,1.65,3.99,4.12,7.12,7.43,9.38,3.31,2.26,7.43,3.39,12.35,3.39,5.66,0,10.22-1.47,13.69-4.4,3.47-2.93,5.87-6.87,7.22-11.83l6.56,1.71c-1.72,6.3-4.9,11.32-9.53,15.07-4.64,3.75-10.61,5.62-17.93,5.62Z"/>
    <path d="M253.17,80.88c-4.69,0-8.7-1.06-12.03-3.19-3.32-2.13-5.87-5.07-7.65-8.83s-2.67-8.08-2.67-12.94.9-9.3,2.71-13.03c1.81-3.73,4.38-6.64,7.72-8.72,3.34-2.08,7.31-3.13,11.92-3.13s8.75,1.06,12.09,3.17c3.34,2.11,5.89,5.04,7.65,8.79,1.76,3.75,2.65,8.05,2.65,12.92s-.89,9.31-2.67,13.05c-1.78,3.75-4.34,6.67-7.7,8.77-3.35,2.1-7.36,3.15-12.03,3.15ZM253.17,74.71c5.25,0,9.15-1.74,11.72-5.23,2.56-3.48,3.85-8.01,3.85-13.58s-1.29-10.26-3.87-13.64c-2.58-3.38-6.48-5.07-11.7-5.07-3.53,0-6.44.79-8.72,2.38-2.29,1.59-3.99,3.79-5.12,6.6-1.12,2.81-1.68,6.06-1.68,9.73,0,5.68,1.31,10.24,3.94,13.67,2.62,3.43,6.49,5.14,11.59,5.14Z"/>
    <path d="M279.06,79.57v-47.23h5.77v11.37l-1.14-1.49c.52-1.4,1.21-2.69,2.06-3.87.85-1.18,1.76-2.15,2.75-2.91,1.22-1.08,2.65-1.9,4.29-2.47,1.63-.57,3.28-.9,4.94-1.01,1.66-.1,3.18.02,4.55.37v6.03c-1.72-.44-3.6-.54-5.64-.31-2.04.23-3.92,1.05-5.64,2.45-1.57,1.22-2.75,2.69-3.54,4.39s-1.31,3.51-1.57,5.42c-.26,1.91-.39,3.8-.39,5.66v23.57h-6.43Z"/>
    <path d="M304.42,79.57v-47.23h5.82v11.63h.66v35.6h-6.47ZM338.58,79.57v-24.1c0-2.62-.25-5.04-.74-7.24-.5-2.2-1.29-4.12-2.38-5.77-1.09-1.65-2.51-2.92-4.24-3.83-1.74-.9-3.84-1.36-6.32-1.36-2.27,0-4.28.39-6.01,1.18-1.74.79-3.19,1.92-4.37,3.39-1.18,1.47-2.08,3.26-2.69,5.36-.61,2.1-.92,4.49-.92,7.17l-4.55-1.01c0-4.84.85-8.91,2.54-12.2,1.69-3.29,4.02-5.79,7-7.48,2.97-1.69,6.38-2.54,10.23-2.54,2.83,0,5.3.44,7.41,1.31,2.11.87,3.91,2.06,5.38,3.54,1.47,1.49,2.66,3.19,3.56,5.09.9,1.91,1.56,3.94,1.97,6.08.41,2.14.61,4.28.61,6.41v25.98h-6.47Z"/>
    <path d="M369.97,80.88c-4.61,0-8.59-1.02-11.96-3.06s-5.98-4.91-7.85-8.61c-1.87-3.7-2.8-8.05-2.8-13.03s.92-9.62,2.75-13.38c1.84-3.76,4.42-6.66,7.76-8.7,3.34-2.04,7.28-3.06,11.83-3.06s8.64,1.07,11.94,3.21c3.29,2.14,5.79,5.21,7.48,9.21,1.69,3.99,2.46,8.76,2.32,14.3h-6.56v-2.27c-.12-6.12-1.44-10.74-3.96-13.86-2.52-3.12-6.2-4.68-11.04-4.68s-8.96,1.65-11.65,4.94c-2.7,3.29-4.05,7.99-4.05,14.08s1.35,10.56,4.05,13.84c2.7,3.28,6.52,4.92,11.48,4.92,3.38,0,6.33-.78,8.86-2.34,2.52-1.56,4.51-3.81,5.97-6.76l5.99,2.32c-1.87,4.11-4.61,7.3-8.24,9.55s-7.73,3.39-12.31,3.39ZM351.92,57.74v-5.38h36.08v5.38h-36.08Z"/>
    <path d="M394.99,79.57v-47.23h5.77v11.37l-1.14-1.49c.53-1.4,1.21-2.69,2.06-3.87.84-1.18,1.76-2.15,2.75-2.91,1.22-1.08,2.65-1.9,4.29-2.47,1.63-.57,3.28-.9,4.94-1.01,1.66-.1,3.18.02,4.55.37v6.03c-1.72-.44-3.6-.54-5.64-.31-2.04.23-3.92,1.05-5.64,2.45-1.57,1.22-2.76,2.69-3.54,4.39-.79,1.71-1.31,3.51-1.57,5.42-.26,1.91-.39,3.8-.39,5.66v23.57h-6.43Z"/>
  </g>
  <g>
    <path d="M255.25,111.14c-.56,0-1.04-.1-1.42-.31s-.69-.46-.92-.76c-.23-.3-.41-.6-.54-.88h-.13v1.75h-1.05v-12.5h1.08v4.92h.09c.13-.28.31-.57.54-.86.23-.3.53-.55.91-.75.38-.2.86-.31,1.43-.31.77,0,1.45.2,2.03.61s1.03.97,1.36,1.7.49,1.57.49,2.53-.16,1.82-.48,2.55-.77,1.3-1.35,1.71-1.25.61-2.03.61ZM255.14,110.15c.62,0,1.14-.17,1.57-.52.43-.35.76-.81.98-1.4.22-.59.34-1.24.34-1.96s-.11-1.37-.34-1.95-.55-1.04-.97-1.38c-.43-.34-.95-.51-1.58-.51s-1.14.16-1.56.49c-.43.33-.75.78-.97,1.36-.22.58-.34,1.24-.34,2s.11,1.42.34,2,.55,1.04.98,1.38c.43.34.95.5,1.56.5Z"/>
    <path d="M261.37,114.44c-.21,0-.41-.01-.6-.05-.19-.04-.34-.09-.45-.14l.29-.95.13.03c.52.15.95.13,1.31-.05s.66-.62.91-1.3l.34-.96-3.45-9.48h1.18l2.78,7.96h.08l2.79-7.96h1.17l-3.96,10.86c-.17.45-.37.83-.62,1.13-.24.3-.52.53-.84.68-.32.15-.68.22-1.07.22Z"/>
  </g>
  <g>
    <path d="M277.64,83.83v26.96h-6.49v-26.96h6.49ZM281.11,110.79h-7.2v-5.55h6.93c1.52,0,2.8-.26,3.85-.77,1.05-.51,1.85-1.35,2.39-2.51.54-1.16.81-2.71.81-4.65s-.27-3.49-.81-4.65-1.35-1.99-2.42-2.51c-1.07-.51-2.38-.77-3.93-.77h-6.93v-5.55h7.29c2.75,0,5.12.54,7.1,1.62,1.98,1.08,3.51,2.63,4.59,4.64,1.07,2.01,1.61,4.42,1.61,7.22s-.54,5.21-1.61,7.23c-1.07,2.02-2.6,3.57-4.59,4.64-1.98,1.07-4.34,1.61-7.08,1.61Z"/>
    <path d="M306.6,111.17c-2.12,0-3.95-.42-5.48-1.26-1.53-.84-2.7-2.04-3.52-3.59s-1.22-3.41-1.22-5.57.41-3.91,1.23-5.47c.82-1.56,1.98-2.78,3.47-3.65,1.5-.87,3.26-1.31,5.28-1.31,1.44,0,2.75.23,3.95.68,1.2.45,2.24,1.12,3.11,1.99.87.87,1.55,1.95,2.03,3.23.48,1.28.71,2.76.71,4.43v1.59h-17.57v-3.71h14.51l-3,.87c0-.93-.14-1.72-.42-2.38-.28-.66-.69-1.17-1.23-1.53s-1.22-.54-2.03-.54-1.49.18-2.04.54c-.55.36-.98.87-1.27,1.51-.29.65-.43,1.41-.43,2.29v2.66c0,.94.17,1.75.5,2.44.33.69.8,1.22,1.41,1.58.61.37,1.31.55,2.11.55.55,0,1.06-.08,1.52-.24.46-.16.85-.39,1.18-.7.33-.31.57-.68.74-1.11l5.9.16c-.24,1.33-.77,2.48-1.59,3.46-.82.98-1.89,1.73-3.22,2.27s-2.87.8-4.63.8Z"/>
    <path d="M337.36,90.56l-6.95,20.23h-7.38l-6.89-20.23h6.78l3.8,13.93h.22l3.73-13.93h6.69Z"/>
    <path d="M351.02,111.08c-1.01,0-1.89-.17-2.64-.51-.75-.34-1.37-.78-1.87-1.32s-.88-1.13-1.15-1.75h-.22v3.29h-6.37v-26.96h6.44v10.2h.14c.25-.62.62-1.21,1.11-1.78.49-.57,1.11-1.04,1.86-1.4s1.67-.54,2.74-.54c1.41,0,2.73.37,3.94,1.11,1.22.74,2.2,1.88,2.96,3.41.75,1.53,1.13,3.49,1.13,5.86s-.36,4.21-1.09,5.75c-.72,1.54-1.7,2.7-2.92,3.47-1.22.77-2.58,1.16-4.08,1.16ZM348.79,106.07c.8,0,1.47-.22,2.02-.67.55-.45.96-1.07,1.25-1.88.28-.81.43-1.75.43-2.82s-.14-2.03-.43-2.83c-.28-.8-.7-1.43-1.24-1.87-.54-.45-1.22-.67-2.03-.67s-1.45.22-2.01.65c-.55.43-.98,1.05-1.28,1.85-.3.8-.44,1.76-.44,2.87s.15,2.03.44,2.83c.3.8.72,1.43,1.28,1.87.55.45,1.22.67,2.01.67Z"/>
    <path d="M370.79,111.17c-2.12,0-3.94-.44-5.46-1.31-1.52-.87-2.69-2.09-3.5-3.65-.81-1.56-1.22-3.38-1.22-5.45s.41-3.91,1.22-5.47c.81-1.56,1.98-2.78,3.5-3.65,1.52-.87,3.34-1.31,5.46-1.31s3.95.44,5.47,1.31c1.53.87,2.7,2.09,3.51,3.65.81,1.56,1.22,3.39,1.22,5.47s-.41,3.89-1.22,5.45-1.98,2.78-3.51,3.65c-1.53.87-3.35,1.31-5.47,1.31ZM370.83,106.27c.78,0,1.44-.23,1.97-.69.53-.46.94-1.11,1.22-1.94.28-.84.43-1.81.43-2.92s-.14-2.09-.43-2.91c-.28-.82-.69-1.46-1.22-1.91s-1.19-.68-1.97-.68-1.45.23-2.01.68c-.55.45-.97,1.09-1.25,1.91-.28.82-.42,1.79-.42,2.91s.14,2.08.42,2.92c.28.84.69,1.49,1.25,1.94.55.46,1.22.69,2.01.69Z"/>
    <path d="M388.05,90.56l3.31,6.69,3.46-6.69h6.49l-5.64,10.13,5.86,10.09h-6.46l-3.71-6.69-3.6,6.69h-6.53l5.88-10.09-5.59-10.13h6.53Z"/>
  </g>
</svg>